<?xml version="1.0" encoding="UTF-8" standalone="no"?>
<svg
   xmlns:dc="http://purl.org/dc/elements/1.1/"
   xmlns:cc="http://creativecommons.org/ns#"
   xmlns:rdf="http://www.w3.org/1999/02/22-rdf-syntax-ns#"
   xmlns:svg="http://www.w3.org/2000/svg"
   xmlns="http://www.w3.org/2000/svg"
   xmlns:sodipodi="http://sodipodi.sourceforge.net/DTD/sodipodi-0.dtd"
   xmlns:inkscape="http://www.inkscape.org/namespaces/inkscape"
   version="1.0"
   width="104pt"
   height="38pt"
   viewBox="0 0 104 38"
   preserveAspectRatio="xMidYMid meet"
   id="svg3518"
   inkscape:version="0.91 r13725"
   sodipodi:docname="dark.svg">
  <defs
     id="defs3612" />
  <sodipodi:namedview
     pagecolor="#ffffff"
     bordercolor="#666666"
     borderopacity="1"
     objecttolerance="10"
     gridtolerance="10"
     guidetolerance="10"
     inkscape:pageopacity="0"
     inkscape:pageshadow="2"
     inkscape:window-width="1535"
     inkscape:window-height="876"
     id="namedview3610"
     showgrid="false"
     inkscape:zoom="1.0530769"
     inkscape:cx="650"
     inkscape:cy="218.59183"
     inkscape:window-x="65"
     inkscape:window-y="24"
     inkscape:window-maximized="1"
     inkscape:current-layer="svg3518" />
  <metadata
     id="metadata3520">
Created by potrace 1.13, written by Peter Selinger 2001-2015
<rdf:RDF>
  <cc:Work
     rdf:about="">
    <dc:format>image/svg+xml</dc:format>
    <dc:type
       rdf:resource="http://purl.org/dc/dcmitype/StillImage" />
    <dc:title></dc:title>
  </cc:Work>
</rdf:RDF>
</metadata>
  <g
     transform="matrix(0.01046564,0,0,-0.0104863,-4.5227127,38.737666)"
     id="g3522"
     style="fill:#000000;stroke:none">
    <path
       d="m 1842,3570 c -104,-63 -61,-210 62,-210 53,0 106,52 106,104 0,52 -25,95 -65,112 -46,19 -64,18 -103,-6 z"
       id="path3524"
       inkscape:connector-curvature="0" />
    <path
       d="m 1842,3250 c -104,-63 -61,-210 62,-210 53,0 106,52 106,104 0,52 -25,95 -65,112 -46,19 -64,18 -103,-6 z"
       id="path3526"
       inkscape:connector-curvature="0" />
    <path
       d="m 1412,2950 c -104,-63 -61,-210 62,-210 53,0 106,52 106,104 0,52 -25,95 -65,112 -46,19 -64,18 -103,-6 z"
       id="path3528"
       inkscape:connector-curvature="0" />
    <path
       d="m 1842,2940 c -104,-63 -61,-210 62,-210 53,0 106,52 106,104 0,52 -25,95 -65,112 -46,19 -64,18 -103,-6 z"
       id="path3530"
       inkscape:connector-curvature="0" />
    <path
       d="m 2242,2940 c -104,-63 -61,-210 62,-210 53,0 106,52 106,104 0,52 -25,95 -65,112 -46,19 -64,18 -103,-6 z"
       id="path3532"
       inkscape:connector-curvature="0" />
    <path
       d="m 1412,2620 c -104,-63 -61,-210 62,-210 53,0 106,52 106,104 0,52 -25,95 -65,112 -46,19 -64,18 -103,-6 z"
       id="path3534"
       inkscape:connector-curvature="0" />
    <path
       d="m 1842,2610 c -104,-63 -61,-210 62,-210 53,0 106,52 106,104 0,52 -25,95 -65,112 -46,19 -64,18 -103,-6 z"
       id="path3536"
       inkscape:connector-curvature="0" />
    <path
       d="m 2242,2610 c -104,-63 -61,-210 62,-210 53,0 106,52 106,104 0,52 -25,95 -65,112 -46,19 -64,18 -103,-6 z"
       id="path3538"
       inkscape:connector-curvature="0" />
    <path
       d="m 7443,2600 c -96,-19 -177,-89 -208,-179 -8,-25 -18,-94 -22,-153 l -6,-108 -74,0 -74,0 3,-62 3,-63 73,-3 72,-3 0,-414 0,-415 90,0 90,0 0,415 0,415 100,0 100,0 0,65 0,65 -101,0 -101,0 4,103 c 6,157 39,197 166,197 l 70,0 11,62 c 6,34 9,63 8,65 -7,6 -111,23 -136,22 -14,-1 -45,-5 -68,-9 z"
       id="path3540"
       inkscape:connector-curvature="0" />
    <path
       d="m 8533,2600 c -96,-19 -177,-89 -208,-179 -8,-25 -18,-94 -22,-153 l -6,-108 -74,0 -74,0 3,-62 3,-63 73,-3 72,-3 0,-414 0,-415 90,0 90,0 0,415 0,415 100,0 100,0 0,65 0,65 -101,0 -101,0 4,103 c 6,157 39,197 166,197 l 70,0 11,62 c 6,34 9,63 8,65 -7,6 -111,23 -136,22 -14,-1 -45,-5 -68,-9 z"
       id="path3542"
       inkscape:connector-curvature="0" />
    <path
       d="m 7790,2500 0,-90 85,0 85,0 0,90 0,90 -85,0 -85,0 0,-90 z"
       id="path3544"
       inkscape:connector-curvature="0" />
    <path
       d="m 3557,2493 c -4,-3 -7,-296 -7,-650 l 0,-643 90,0 90,0 0,285 0,285 295,0 295,0 0,70 0,70 -295,0 -295,0 0,225 0,225 340,0 340,0 0,70 0,70 -423,0 c -233,0 -427,-3 -430,-7 z"
       id="path3546"
       inkscape:connector-curvature="0" />
    <path
       d="m 8920,2280 0,-120 -80,0 -81,0 3,-62 3,-63 77,-3 77,-3 3,-347 c 3,-337 4,-348 25,-389 51,-94 167,-135 286,-102 46,12 52,25 40,87 l -8,47 -57,0 c -65,0 -92,18 -108,74 -6,20 -10,166 -10,333 l 0,297 93,3 92,3 3,63 3,62 -96,0 -95,0 0,120 0,120 -85,0 -85,0 0,-120 z"
       id="path3548"
       inkscape:connector-curvature="0" />
    <path
       d="m 992,2310 c -104,-63 -61,-210 62,-210 53,0 106,52 106,104 0,52 -25,95 -65,112 -46,19 -64,18 -103,-6 z"
       id="path3550"
       inkscape:connector-curvature="0" />
    <path
       d="m 1412,2310 c -104,-63 -61,-210 62,-210 53,0 106,52 106,104 0,52 -25,95 -65,112 -46,19 -64,18 -103,-6 z"
       id="path3552"
       inkscape:connector-curvature="0" />
    <path
       d="m 1832,2300 c -104,-63 -61,-210 62,-210 53,0 106,52 106,104 0,52 -25,95 -65,112 -46,19 -64,18 -103,-6 z"
       id="path3554"
       inkscape:connector-curvature="0" />
    <path
       d="m 2242,2300 c -104,-63 -61,-210 62,-210 53,0 106,52 106,104 0,52 -25,95 -65,112 -46,19 -64,18 -103,-6 z"
       id="path3556"
       inkscape:connector-curvature="0" />
    <path
       d="m 2652,2300 c -104,-63 -61,-210 62,-210 53,0 106,52 106,104 0,52 -25,95 -65,112 -46,19 -64,18 -103,-6 z"
       id="path3558"
       inkscape:connector-curvature="0" />
    <path
       d="m 4919,2166 c -51,-18 -96,-52 -129,-97 -30,-41 -40,-37 -40,19 0,68 -5,72 -91,72 l -79,0 0,-480 0,-480 90,0 90,0 0,350 0,350 38,41 c 48,54 85,69 171,69 81,0 80,-1 84,105 l 2,60 -50,2 c -27,2 -66,-3 -86,-11 z"
       id="path3560"
       inkscape:connector-curvature="0" />
    <path
       d="m 5485,2167 c -114,-39 -203,-117 -259,-228 -80,-161 -72,-409 19,-564 37,-64 126,-140 193,-165 71,-28 213,-37 295,-20 60,12 186,70 207,95 9,11 5,25 -21,69 -32,53 -34,55 -54,40 -11,-8 -45,-27 -75,-41 -65,-32 -202,-44 -265,-23 -85,28 -157,135 -171,253 l -7,57 317,0 316,0 0,83 c -1,220 -82,371 -232,429 -67,26 -206,34 -263,15 z m 206,-150 c 60,-32 99,-96 106,-176 l 6,-61 -222,0 c -253,0 -238,-7 -201,92 24,65 70,122 118,148 53,28 137,26 193,-3 z"
       id="path3562"
       inkscape:connector-curvature="0" />
    <path
       d="m 6449,2167 c -135,-38 -254,-169 -294,-324 -22,-82 -20,-261 3,-344 45,-163 156,-272 311,-309 76,-18 230,-8 302,19 63,24 139,75 139,93 0,6 -14,33 -31,60 -29,44 -33,47 -48,34 -42,-38 -136,-70 -217,-74 -136,-7 -203,28 -255,133 -20,40 -33,85 -36,124 l -6,61 312,0 311,0 0,103 c -1,117 -11,170 -46,242 -60,119 -167,185 -313,191 -52,2 -104,-1 -132,-9 z m 196,-146 c 23,-10 53,-33 68,-50 28,-34 57,-116 57,-163 l 0,-28 -225,0 c -124,0 -225,2 -225,4 0,2 9,33 20,68 22,73 84,152 135,174 43,19 123,17 170,-5 z"
       id="path3564"
       inkscape:connector-curvature="0" />
    <path
       d="m 7790,1680 0,-480 85,0 85,0 0,480 0,480 -85,0 -85,0 0,-480 z"
       id="path3566"
       inkscape:connector-curvature="0" />
    <path
       d="m 9417,2088 c 15,-40 95,-253 179,-473 l 151,-400 -33,-78 C 9651,989 9621,961 9534,960 l -61,0 -7,-66 c -4,-37 -4,-69 -1,-72 12,-13 138,-14 180,-2 56,16 120,72 162,141 26,44 443,1164 443,1191 0,4 -42,8 -94,8 l -95,0 -119,-362 c -66,-200 -121,-356 -124,-348 -3,8 -56,171 -119,363 l -113,347 -98,0 -98,0 27,-72 z"
       id="path3568"
       inkscape:connector-curvature="0" />
    <path
       d="m 602,2020 c -104,-63 -61,-210 62,-210 53,0 106,52 106,104 0,52 -25,95 -65,112 -46,19 -64,18 -103,-6 z"
       id="path3570"
       inkscape:connector-curvature="0" />
    <path
       d="m 1412,2020 c -104,-63 -61,-210 62,-210 53,0 106,52 106,104 0,52 -25,95 -65,112 -46,19 -64,18 -103,-6 z"
       id="path3572"
       inkscape:connector-curvature="0" />
    <path
       d="m 982,2000 c -104,-63 -61,-210 62,-210 53,0 106,52 106,104 0,52 -25,95 -65,112 -46,19 -64,18 -103,-6 z"
       id="path3574"
       inkscape:connector-curvature="0" />
    <path
       d="m 1842,2000 c -104,-63 -61,-210 62,-210 53,0 106,52 106,104 0,52 -25,95 -65,112 -46,19 -64,18 -103,-6 z"
       id="path3576"
       inkscape:connector-curvature="0" />
    <path
       d="m 2252,2000 c -104,-63 -61,-210 62,-210 53,0 106,52 106,104 0,52 -25,95 -65,112 -46,19 -64,18 -103,-6 z"
       id="path3578"
       inkscape:connector-curvature="0" />
    <path
       d="m 3082,2000 c -104,-63 -61,-210 62,-210 53,0 106,52 106,104 0,52 -25,95 -65,112 -46,19 -64,18 -103,-6 z"
       id="path3580"
       inkscape:connector-curvature="0" />
    <path
       d="m 2662,1990 c -104,-63 -61,-210 62,-210 53,0 106,52 106,104 0,52 -25,95 -65,112 -46,19 -64,18 -103,-6 z"
       id="path3582"
       inkscape:connector-curvature="0" />
    <path
       d="m 982,1720 c -104,-63 -61,-210 62,-210 53,0 106,52 106,104 0,52 -25,95 -65,112 -46,19 -64,18 -103,-6 z"
       id="path3584"
       inkscape:connector-curvature="0" />
    <path
       d="m 1412,1700 c -104,-63 -61,-210 62,-210 53,0 106,52 106,104 0,52 -25,95 -65,112 -46,19 -64,18 -103,-6 z"
       id="path3586"
       inkscape:connector-curvature="0" />
    <path
       d="m 1842,1700 c -104,-63 -61,-210 62,-210 53,0 106,52 106,104 0,52 -25,95 -65,112 -46,19 -64,18 -103,-6 z"
       id="path3588"
       inkscape:connector-curvature="0" />
    <path
       d="m 2242,1690 c -104,-63 -61,-210 62,-210 53,0 106,52 106,104 0,52 -25,95 -65,112 -46,19 -64,18 -103,-6 z"
       id="path3590"
       inkscape:connector-curvature="0" />
    <path
       d="m 2662,1690 c -104,-63 -61,-210 62,-210 53,0 106,52 106,104 0,52 -25,95 -65,112 -46,19 -64,18 -103,-6 z"
       id="path3592"
       inkscape:connector-curvature="0" />
    <path
       d="m 1412,1370 c -104,-63 -61,-210 62,-210 53,0 106,52 106,104 0,52 -25,95 -65,112 -46,19 -64,18 -103,-6 z"
       id="path3594"
       inkscape:connector-curvature="0" />
    <path
       d="m 1842,1370 c -104,-63 -61,-210 62,-210 53,0 106,52 106,104 0,52 -25,95 -65,112 -46,19 -64,18 -103,-6 z"
       id="path3596"
       inkscape:connector-curvature="0" />
    <path
       d="m 2242,1370 c -104,-63 -61,-210 62,-210 53,0 106,52 106,104 0,52 -25,95 -65,112 -46,19 -64,18 -103,-6 z"
       id="path3598"
       inkscape:connector-curvature="0" />
    <path
       d="m 1842,1060 c -104,-63 -61,-210 62,-210 53,0 106,52 106,104 0,52 -25,95 -65,112 -46,19 -64,18 -103,-6 z"
       id="path3600"
       inkscape:connector-curvature="0" />
    <path
       d="m 2242,1050 c -104,-63 -61,-210 62,-210 53,0 106,52 106,104 0,52 -25,95 -65,112 -46,19 -64,18 -103,-6 z"
       id="path3602"
       inkscape:connector-curvature="0" />
    <path
       d="m 1412,1040 c -104,-63 -61,-210 62,-210 53,0 106,52 106,104 0,52 -25,95 -65,112 -46,19 -64,18 -103,-6 z"
       id="path3604"
       inkscape:connector-curvature="0" />
    <path
       d="m 1842,760 c -104,-63 -61,-210 62,-210 53,0 106,52 106,104 0,52 -25,95 -65,112 -46,19 -64,18 -103,-6 z"
       id="path3606"
       inkscape:connector-curvature="0" />
    <path
       d="m 1832,430 c -104,-63 -61,-210 62,-210 53,0 106,52 106,104 0,52 -25,95 -65,112 -46,19 -64,18 -103,-6 z"
       id="path3608"
       inkscape:connector-curvature="0" />
  </g>
</svg>
